<?xml version="1.0" encoding="iso-8859-1"?>
<!-- Generator: Adobe Illustrator 19.0.0, SVG Export Plug-In . SVG Version: 6.00 Build 0)  -->
<svg version="1.1" id="Capa_1" xmlns="http://www.w3.org/2000/svg" xmlns:xlink="http://www.w3.org/1999/xlink" x="0px" y="0px"
	 viewBox="0 0 512 512" style="enable-background:new 0 0 512 512;" xml:space="preserve">
<path style="fill:#4E901E;" d="M85.721,25.757c34.343-34.343,90.222-34.343,124.565,0c4.952,4.952,4.952,12.98,0,17.931
	L103.653,150.322c-4.952,4.952-12.98,4.952-17.932,0C51.379,115.979,51.379,60.1,85.721,25.757z"/>
<path style="fill:#47821C;" d="M138.628,21.075C147.009,12.693,156.679,6.373,167,2.082c-28.378-6.224-59.256,1.651-81.28,23.675
	c-34.343,34.343-34.343,90.221,0,124.565c4.952,4.952,12.98,4.952,17.932,0l21.701-21.701
	C105.092,94.792,109.51,50.194,138.628,21.075z"/>
<path style="fill:#FFEB99;" d="M95.961,36.637c29.072-29.072,76.207-29.072,105.279,0c2.737,2.737,5.217,5.633,7.438,8.66
	L104.622,149.353c-3.027-2.221-5.924-4.7-8.661-7.437C66.888,112.844,66.888,65.709,95.961,36.637z"/>
<path style="fill:#FFE477;" d="M135.178,16.051l21.459,81.286L75.375,75.855c2.62-14.365,9.478-28.111,20.586-39.218
	S120.812,18.671,135.178,16.051z"/>
<path style="fill:#B9D8F4;" d="M341.628,482.318H320.37c-18.487,0-20.178-19.371-20.305-24.418V351.192
	c0.164-68.093,20.305-76.681,20.305-76.681h-61.984c0,0,20.308,8.65,20.308,77.512v105.724c-0.097,4.797-1.631,24.572-20.308,24.572
	H237.13c-8.163,0-14.841,6.679-14.841,14.841c0,8.162,6.679,14.841,14.841,14.841h104.498c8.163,0,14.841-6.679,14.841-14.841
	C356.469,488.998,349.791,482.318,341.628,482.318z"/>
<g>
	<path style="fill:#96C8EF;" d="M258.385,482.318H237.13c-8.163,0-14.841,6.679-14.841,14.841s6.679,14.841,14.841,14.841h22.884
		c-8.163,0-14.841-6.679-14.841-14.841C245.174,485.609,258.385,482.318,258.385,482.318z"/>
	<path style="fill:#96C8EF;" d="M276.102,314.295c9.796,2.672,17.106,2.323,26.556,0c5.474-34.562,17.713-39.784,17.713-39.784
		h-61.984C258.388,274.511,270.628,279.732,276.102,314.295z"/>
</g>
<path style="fill:#D1E7F8;" d="M449.875,74.706c-3.117-5.734-9.12-9.303-15.647-9.303H144.531c-6.526,0-12.53,3.57-15.647,9.303
	c-3.117,5.734-2.849,12.713,0.701,18.19l96.075,148.266c3.234,5.188,27.976,42.879,63.719,42.879s60.484-37.691,63.719-42.879
	l96.074-148.266C452.723,87.42,452.991,80.44,449.875,74.706z"/>
<path style="fill:#B9D8F4;" d="M307.616,241.163L211.54,92.897c-3.549-5.477-3.818-12.457-0.701-18.19
	c3.117-5.734,9.12-9.303,15.647-9.303h-81.955c-6.526,0-12.53,3.57-15.647,9.303c-3.117,5.734-2.849,12.713,0.701,18.19
	l96.075,148.266c3.234,5.188,27.976,42.879,63.719,42.879c16.274,0,30.257-7.818,40.978-16.819
	C317.531,256.453,309.377,243.988,307.616,241.163z"/>
<path style="fill:#FF0C38;" d="M414.331,92.692c-2.389-4.396-6.992-7.132-11.995-7.132H176.423c-5.004,0-9.606,2.737-11.996,7.132
	c-2.389,4.396-2.183,9.747,0.538,13.946l76.477,118.021c0,0,18.438,33.277,47.937,33.277c26.422,0,45.707-29.704,47.812-33.081
	l76.602-118.217C416.514,102.439,416.72,97.088,414.331,92.692z"/>
<g>
	<path style="fill:#D80027;" d="M164.427,92.692c-2.389,4.396-2.183,9.747,0.538,13.946l76.477,118.021
		c0,0,18.438,33.277,47.937,33.277c9.066,0,17.291-3.498,24.272-8.229c-3.181-4.094-5.249-7.284-6.036-8.544L211.54,92.897
		c-1.461-2.254-2.357-4.765-2.698-7.338h-32.419C171.419,85.56,166.816,88.296,164.427,92.692z"/>
	<path style="fill:#D80027;" d="M348.864,149.233c-3.707-2.229-4.667-7.201-2.314-10.832l4.3-6.636
		c2.352-3.63,7.201-4.667,10.831-2.313c3.631,2.352,4.667,7.201,2.314,10.832l-4.3,6.636
		C358.195,149.234,353.947,152.291,348.864,149.233z"/>
	<path style="fill:#D80027;" d="M318.17,196.602c-3.517-2.519-4.667-7.201-2.314-10.832l19.379-29.906
		c2.352-3.63,7.202-4.667,10.831-2.313c3.631,2.352,4.667,7.201,2.314,10.832L329,194.289
		C327.502,196.602,322.447,199.665,318.17,196.602z"/>
</g>
<g>
</g>
<g>
</g>
<g>
</g>
<g>
</g>
<g>
</g>
<g>
</g>
<g>
</g>
<g>
</g>
<g>
</g>
<g>
</g>
<g>
</g>
<g>
</g>
<g>
</g>
<g>
</g>
<g>
</g>
</svg>
